<svg xmlns="http://www.w3.org/2000/svg" viewBox="0 0 160 160" fill="none" role="img" aria-labelledby="title desc">
  <title id="title">SPARTA AI</title>
  <desc id="desc">A glowing core inside a golden orbit ring, representing precise and powerful artificial intelligence.</desc>
  <defs>
    <radialGradient id="smGlow" cx="50%" cy="50%" r="50%">
      <stop offset="0%" stop-color="#E0554E" stop-opacity=".5"/>
      <stop offset="55%" stop-color="#E0554E" stop-opacity=".16"/>
      <stop offset="100%" stop-color="#E0554E" stop-opacity="0"/>
    </radialGradient>
    <radialGradient id="smCore" cx="38%" cy="32%" r="75%">
      <stop offset="0%" stop-color="#FFC98F"/>
      <stop offset="42%" stop-color="#E85F53"/>
      <stop offset="100%" stop-color="#A93438"/>
    </radialGradient>
  </defs>
  <circle cx="80" cy="80" r="70" fill="#181113" stroke="#D9A45B" stroke-opacity=".4" stroke-width="2.5"/>
  <circle cx="80" cy="80" r="55" stroke="#F6F1EC" stroke-opacity=".07" stroke-width="1.5"/>
  <circle cx="80" cy="80" r="36" fill="url(#smGlow)"/>
  <g transform="rotate(-24 80 80)">
    <path d="M28 80a52 21 0 0 1 104 0" stroke="#D9A45B" stroke-opacity=".42" stroke-width="3" stroke-linecap="round"/>
    <circle cx="122.6" cy="68" r="3" fill="#F2D49B" fill-opacity=".85"/>
  </g>
  <circle cx="80" cy="80" r="17.5" fill="url(#smCore)"/>
  <circle cx="73.5" cy="73.5" r="4.5" fill="#FFE3B8" fill-opacity=".65"/>
  <g transform="rotate(-24 80 80)">
    <path d="M132 80a52 21 0 0 1-104 0" stroke="#D9A45B" stroke-width="3.5" stroke-linecap="round"/>
    <circle cx="37.4" cy="92" r="5" fill="#E8B25C"/>
    <circle cx="37.4" cy="92" r="8.5" stroke="#E8B25C" stroke-opacity=".35" stroke-width="1.5"/>
  </g>
  <circle cx="41" cy="46" r="2.5" fill="#F2D49B" fill-opacity=".8"/>
  <circle cx="121" cy="118" r="2" fill="#E0554E" fill-opacity=".8"/>
</svg>
